<svg xmlns="http://www.w3.org/2000/svg" xmlns:xlink="http://www.w3.org/1999/xlink" width="300" zoomAndPan="magnify" viewBox="0 0 300 187.499995" height="180" preserveAspectRatio="xMidYMid meet" version="1.0"><defs><g/></defs><path fill="#ffffff" d="M 62.84375 127.785156 C 51.921875 124.453125 43.277344 115.550781 40.277344 104.542969 C 39.90625 103.191406 38.507812 102.390625 37.15625 102.761719 C 35.800781 103.132812 35.003906 104.527344 35.371094 105.882812 C 38.828125 118.558594 48.785156 128.8125 61.359375 132.648438 C 61.605469 132.726562 61.855469 132.761719 62.101562 132.761719 C 63.191406 132.761719 64.195312 132.054688 64.53125 130.957031 C 64.941406 129.617188 64.183594 128.195312 62.84375 127.785156 Z M 62.84375 127.785156 " fill-opacity="1" fill-rule="nonzero"/><path fill="#ffffff" d="M 37.6875 79.136719 C 37.085938 80.40625 37.628906 81.921875 38.898438 82.523438 C 40.167969 83.125 41.679688 82.582031 42.28125 81.3125 C 47.820312 69.621094 59.75 62.0625 72.675781 62.0625 C 91.199219 62.0625 106.269531 77.132812 106.269531 95.65625 C 106.269531 108.582031 98.710938 120.511719 87.019531 126.050781 C 85.746094 126.652344 85.207031 128.164062 85.808594 129.433594 C 86.242188 130.351562 87.15625 130.890625 88.105469 130.890625 C 88.472656 130.890625 88.839844 130.8125 89.191406 130.644531 C 102.652344 124.269531 111.351562 110.539062 111.351562 95.65625 C 111.351562 74.328125 94.003906 56.980469 72.675781 56.980469 C 57.792969 56.980469 44.0625 65.675781 37.6875 79.136719 Z M 37.6875 79.136719 " fill-opacity="1" fill-rule="nonzero"/><path fill="#ffbd1f" d="M 119.503906 108.242188 C 118.902344 106.972656 117.394531 106.433594 116.117188 107.03125 C 114.851562 107.632812 114.308594 109.148438 114.910156 110.417969 C 120.714844 122.679688 121.449219 132.730469 116.871094 137.308594 C 112.289062 141.890625 102.238281 141.152344 89.976562 135.34375 C 79.261719 130.296875 67.582031 121.738281 57.089844 111.242188 C 46.589844 100.746094 38.03125 89.066406 32.984375 78.351562 C 27.179688 66.09375 26.445312 56.039062 31.023438 51.460938 C 35.601562 46.882812 45.65625 47.613281 57.914062 53.421875 C 59.183594 54.023438 60.699219 53.480469 61.300781 52.210938 C 61.902344 50.941406 61.359375 49.429688 60.089844 48.824219 C 45.375 41.859375 33.773438 41.515625 27.425781 47.867188 C 21.078125 54.214844 21.421875 65.8125 28.386719 80.523438 C 33.675781 91.75 42.589844 103.9375 53.492188 114.839844 C 64.390625 125.738281 76.578125 134.65625 87.804688 139.945312 C 95.519531 143.601562 102.378906 145.429688 108.074219 145.429688 C 113.238281 145.429688 117.445312 143.921875 120.464844 140.902344 C 126.816406 134.554688 126.472656 122.957031 119.503906 108.242188 Z M 119.503906 108.242188 " fill-opacity="1" fill-rule="nonzero"/><g fill="#ffffff" fill-opacity="1"><g transform="translate(130.942039, 92.363652)"><g><path d="M 6.851562 -2.242188 C 5.289062 -2.242188 3.933594 -3.023438 3.851562 -4.738281 L 0.632812 -4.738281 C 0.65625 -1.226562 3.554688 0.339844 6.726562 0.339844 C 9.667969 0.339844 12.691406 -0.910156 12.691406 -4.292969 C 12.691406 -9.773438 4.378906 -7.933594 4.378906 -10.492188 C 4.378906 -11.570312 5.625 -11.992188 6.515625 -11.992188 C 8.101562 -11.992188 8.96875 -11.507812 9.136719 -10.003906 L 12.203125 -10.003906 C 12.097656 -13.285156 9.433594 -14.59375 6.472656 -14.59375 C 3.851562 -14.59375 1.101562 -13.199219 1.101562 -10.238281 C 1.101562 -4.929688 9.414062 -6.726562 9.414062 -3.933594 C 9.414062 -2.644531 7.847656 -2.242188 6.851562 -2.242188 Z M 6.851562 -2.242188 "/></g></g></g><g fill="#ffffff" fill-opacity="1"><g transform="translate(148.498337, 92.363652)"><g><path d="M 12.375 -7.214844 C 12.375 -4.992188 10.363281 -2.960938 8.144531 -2.960938 C 5.921875 -2.960938 3.914062 -4.992188 3.914062 -7.214844 C 3.914062 -9.433594 5.921875 -11.441406 8.144531 -11.441406 C 10.363281 -11.441406 12.375 -9.433594 12.375 -7.214844 Z M 15.546875 -7.191406 C 15.546875 -11.167969 12.121094 -14.59375 8.144531 -14.59375 C 4.167969 -14.59375 0.742188 -11.167969 0.742188 -7.191406 C 0.742188 -3.214844 4.167969 0.210938 8.144531 0.210938 C 12.121094 0.210938 15.546875 -3.214844 15.546875 -7.191406 Z M 15.546875 -7.191406 "/></g></g></g><g fill="#ffffff" fill-opacity="1"><g transform="translate(169.015935, 92.363652)"><g><path d="M 1.269531 0 L 9.601562 0 L 9.601562 -2.875 L 4.441406 -2.875 L 4.441406 -14.382812 L 1.269531 -14.382812 Z M 1.269531 0 "/></g></g></g><g fill="#ffffff" fill-opacity="1"><g transform="translate(183.589776, 92.363652)"><g><path d="M 9.09375 -5.5 L 5.457031 -5.5 L 7.277344 -10.617188 Z M 14.46875 0 L 8.628906 -14.382812 L 5.945312 -14.382812 L 0.105469 0 L 3.511719 0 L 4.546875 -2.898438 L 10.027344 -2.898438 L 11.0625 0 Z M 14.46875 0 "/></g></g></g><g fill="#ffffff" fill-opacity="1"><g transform="translate(202.394044, 92.363652)"><g><path d="M 4.441406 -5.140625 L 4.464844 -5.140625 L 7.890625 0 L 11.910156 0 L 7.785156 -5.289062 C 9.601562 -5.730469 11.0625 -7.339844 11.0625 -9.773438 C 11.0625 -12.5 8.988281 -14.382812 6.664062 -14.382812 L 1.269531 -14.382812 L 1.269531 0 L 4.441406 0 Z M 6.132812 -11.886719 C 7.066406 -11.886719 8.039062 -11.082031 8.039062 -9.773438 C 8.039062 -8.398438 7.066406 -7.636719 6.132812 -7.636719 L 4.441406 -7.636719 L 4.441406 -11.886719 Z M 6.132812 -11.886719 "/></g></g></g><g fill="#ffffff" fill-opacity="1"><g transform="translate(218.279318, 92.363652)"><g><path d="M 6.875 -3.808594 L 6.875 -5.5625 L 0.316406 -5.5625 L 0.316406 -3.808594 Z M 6.875 -3.808594 "/></g></g></g><g fill="#ffffff" fill-opacity="1"><g transform="translate(229.701489, 92.363652)"><g><path d="M 6.851562 -2.242188 C 5.289062 -2.242188 3.933594 -3.023438 3.851562 -4.738281 L 0.632812 -4.738281 C 0.65625 -1.226562 3.554688 0.339844 6.726562 0.339844 C 9.667969 0.339844 12.691406 -0.910156 12.691406 -4.292969 C 12.691406 -9.773438 4.378906 -7.933594 4.378906 -10.492188 C 4.378906 -11.570312 5.625 -11.992188 6.515625 -11.992188 C 8.101562 -11.992188 8.96875 -11.507812 9.136719 -10.003906 L 12.203125 -10.003906 C 12.097656 -13.285156 9.433594 -14.59375 6.472656 -14.59375 C 3.851562 -14.59375 1.101562 -13.199219 1.101562 -10.238281 C 1.101562 -4.929688 9.414062 -6.726562 9.414062 -3.933594 C 9.414062 -2.644531 7.847656 -2.242188 6.851562 -2.242188 Z M 6.851562 -2.242188 "/></g></g></g><g fill="#ffffff" fill-opacity="1"><g transform="translate(247.257787, 92.363652)"><g><path d="M 5.476562 0 L 8.652344 0 L 8.652344 -6.875 L 13.960938 -14.382812 L 10.175781 -14.382812 L 7.066406 -9.414062 L 3.957031 -14.382812 L 0.167969 -14.382812 L 5.476562 -6.875 Z M 5.476562 0 "/></g></g></g><g fill="#ffffff" fill-opacity="1"><g transform="translate(265.617862, 92.363652)"><g><path d="M 6.851562 -2.242188 C 5.289062 -2.242188 3.933594 -3.023438 3.851562 -4.738281 L 0.632812 -4.738281 C 0.65625 -1.226562 3.554688 0.339844 6.726562 0.339844 C 9.667969 0.339844 12.691406 -0.910156 12.691406 -4.292969 C 12.691406 -9.773438 4.378906 -7.933594 4.378906 -10.492188 C 4.378906 -11.570312 5.625 -11.992188 6.515625 -11.992188 C 8.101562 -11.992188 8.96875 -11.507812 9.136719 -10.003906 L 12.203125 -10.003906 C 12.097656 -13.285156 9.433594 -14.59375 6.472656 -14.59375 C 3.851562 -14.59375 1.101562 -13.199219 1.101562 -10.238281 C 1.101562 -4.929688 9.414062 -6.726562 9.414062 -3.933594 C 9.414062 -2.644531 7.847656 -2.242188 6.851562 -2.242188 Z M 6.851562 -2.242188 "/></g></g></g><g fill="#ffffff" fill-opacity="1"><g transform="translate(165.574353, 113.460753)"><g><path d="M 2.4375 -8.425781 L 8.863281 0.707031 L 8.863281 -11.4375 L 7.6875 -11.4375 L 7.6875 -3.027344 L 1.261719 -12.160156 L 1.261719 0 L 2.4375 0 Z M 2.4375 -8.425781 "/></g></g></g><g fill="#ffffff" fill-opacity="1"><g transform="translate(179.062501, 113.460753)"><g><path d="M 8.492188 -3.867188 C 8.492188 -4.878906 8.089844 -5.75 7.316406 -6.507812 C 6.558594 -7.230469 5.652344 -7.601562 4.625 -7.601562 C 3.546875 -7.601562 2.640625 -7.214844 1.882812 -6.457031 C 1.125 -5.703125 0.757812 -4.792969 0.757812 -3.734375 C 0.757812 -2.65625 1.125 -1.75 1.882812 -1.007812 C 2.238281 -0.65625 2.640625 -0.386719 3.113281 -0.183594 C 3.582031 0.015625 4.136719 0.117188 4.792969 0.117188 C 5.449219 0.117188 6.089844 -0.0859375 6.726562 -0.488281 C 7.367188 -0.890625 7.835938 -1.464844 8.15625 -2.167969 L 6.8125 -2.167969 C 6.542969 -1.816406 6.222656 -1.546875 5.835938 -1.34375 C 5.449219 -1.144531 5.046875 -1.058594 4.625 -1.058594 C 3.984375 -1.058594 3.414062 -1.261719 2.910156 -1.683594 C 2.40625 -2.085938 2.085938 -2.605469 1.984375 -3.246094 L 8.492188 -3.246094 Z M 7.25 -4.253906 L 2 -4.253906 C 2.070312 -4.558594 2.1875 -4.84375 2.355469 -5.113281 C 2.894531 -5.988281 3.648438 -6.425781 4.625 -6.425781 C 5.246094 -6.425781 5.800781 -6.222656 6.289062 -5.820312 C 6.792969 -5.398438 7.097656 -4.878906 7.25 -4.253906 Z M 7.25 -4.253906 "/></g></g></g><g fill="#ffffff" fill-opacity="1"><g transform="translate(191.592012, 113.460753)"><g><path d="M 0.335938 -6.308594 L 2.1875 -6.308594 L 2.1875 0 L 3.363281 0 L 3.363281 -6.308594 L 5.195312 -6.308594 L 5.195312 -7.398438 L 3.363281 -7.398438 L 3.363281 -10.277344 L 2.1875 -10.277344 L 2.1875 -7.398438 L 0.335938 -7.398438 Z M 0.335938 -6.308594 "/></g></g></g><g fill="#ffffff" fill-opacity="1"><g transform="translate(200.488807, 113.460753)"><g><path d="M 8.492188 0.941406 L 12.007812 -7.398438 L 10.695312 -7.398438 L 8.476562 -1.699219 L 6.089844 -7.785156 L 3.699219 -1.699219 L 1.480469 -7.398438 L 0.167969 -7.398438 L 3.71875 0.941406 L 6.089844 -5.027344 Z M 8.492188 0.941406 "/></g></g></g><g fill="#ffffff" fill-opacity="1"><g transform="translate(216.028766, 113.460753)"><g><path d="M 7.316406 -3.734375 C 7.316406 -2.992188 7.046875 -2.371094 6.527344 -1.851562 C 5.988281 -1.3125 5.363281 -1.058594 4.625 -1.058594 C 3.886719 -1.058594 3.246094 -1.3125 2.722656 -1.851562 C 2.1875 -2.371094 1.933594 -2.992188 1.933594 -3.734375 C 1.933594 -4.472656 2.1875 -5.097656 2.722656 -5.632812 C 3.246094 -6.15625 3.886719 -6.425781 4.625 -6.425781 C 5.363281 -6.425781 5.988281 -6.15625 6.527344 -5.632812 C 7.046875 -5.097656 7.316406 -4.472656 7.316406 -3.734375 Z M 8.492188 -3.734375 C 8.492188 -4.792969 8.105469 -5.703125 7.347656 -6.457031 C 6.59375 -7.214844 5.683594 -7.601562 4.625 -7.601562 C 3.546875 -7.601562 2.640625 -7.214844 1.882812 -6.457031 C 1.125 -5.703125 0.757812 -4.792969 0.757812 -3.734375 C 0.757812 -2.65625 1.125 -1.75 1.882812 -1.007812 C 2.640625 -0.253906 3.566406 0.117188 4.625 0.117188 C 5.667969 0.117188 6.59375 -0.253906 7.347656 -1.007812 C 8.105469 -1.75 8.492188 -2.65625 8.492188 -3.734375 Z M 8.492188 -3.734375 "/></g></g></g><g fill="#ffffff" fill-opacity="1"><g transform="translate(228.642368, 113.460753)"><g><path d="M 5.0625 -5.871094 L 5.0625 -7.398438 C 4.828125 -7.5 4.574219 -7.550781 4.320312 -7.550781 C 3.480469 -7.550781 2.875 -7.082031 2.488281 -6.171875 L 2.4375 -5.871094 L 2.4375 -7.398438 L 1.261719 -7.398438 L 1.261719 0 L 2.4375 0 L 2.4375 -3.699219 C 2.4375 -4.304688 2.574219 -4.84375 2.859375 -5.332031 C 2.992188 -5.582031 3.179688 -5.800781 3.398438 -5.96875 C 3.617188 -6.136719 3.886719 -6.238281 4.1875 -6.238281 C 4.492188 -6.238281 4.777344 -6.105469 5.0625 -5.871094 Z M 5.0625 -5.871094 "/></g></g></g><g fill="#ffffff" fill-opacity="1"><g transform="translate(237.236439, 113.460753)"><g><path d="M 2.4375 0 L 2.4375 -3.546875 L 5.347656 0 L 6.914062 0 L 3.667969 -3.816406 L 6.710938 -7.417969 L 5.144531 -7.417969 L 2.4375 -4.070312 L 2.4375 -12.613281 L 1.261719 -12.613281 L 1.261719 0 Z M 2.4375 0 "/></g></g></g></svg>